<svg width="50" height="40" viewBox="0 0 50 40" fill="none" xmlns="http://www.w3.org/2000/svg">
<path d="M9.08994 39.3077V36.7265C9.08994 35.7368 8.48955 35.0916 7.46045 35.0916C6.946 35.0916 6.38857 35.2637 6.00264 35.823C5.70264 35.3497 5.27393 35.0916 4.63076 35.0916C4.20186 35.0916 3.77334 35.2206 3.43018 35.6938V35.1776H2.52979V39.3077H3.43018V37.0275C3.43018 36.2963 3.81611 35.952 4.4165 35.952C5.0165 35.952 5.31689 36.3392 5.31689 37.0275V39.3077H6.21729V37.0275C6.21729 36.2963 6.6458 35.952 7.20322 35.952C7.80361 35.952 8.10361 36.3392 8.10361 37.0275V39.3077H9.08994ZM22.4241 35.1776H20.9665V33.93H20.0661V35.1776H19.2515V35.9949H20.0659V37.888C20.0659 38.8346 20.4519 39.3938 21.481 39.3938C21.8669 39.3938 22.2954 39.2648 22.5958 39.0927L22.3384 38.3182C22.0812 38.4903 21.7812 38.5334 21.5667 38.5334C21.138 38.5334 20.9665 38.2753 20.9665 37.8449V35.9949H22.4241V35.1776ZM30.0562 35.0914C29.5417 35.0914 29.1987 35.3497 28.9843 35.6938V35.1776H28.0839V39.3077H28.9843V36.9846C28.9843 36.2963 29.2843 35.909 29.8417 35.909C30.0132 35.909 30.2276 35.9522 30.3991 35.9951L30.6563 35.1347C30.4849 35.0916 30.2276 35.0916 30.0562 35.0916M18.5226 35.522C18.0937 35.2208 17.4935 35.0918 16.8503 35.0918C15.8214 35.0918 15.1354 35.608 15.1354 36.4254C15.1354 37.1139 15.6499 37.501 16.5503 37.6301L16.979 37.6732C17.4507 37.7591 17.7079 37.8882 17.7079 38.1034C17.7079 38.4044 17.3649 38.6196 16.7646 38.6196C16.1642 38.6196 15.6927 38.4044 15.3925 38.1895L14.9638 38.8777C15.4354 39.2219 16.0786 39.394 16.7216 39.394C17.9222 39.394 18.6083 38.8348 18.6083 38.0603C18.6083 37.3289 18.0509 36.9417 17.1933 36.8127L16.7646 36.7696C16.3786 36.7265 16.0786 36.6406 16.0786 36.3825C16.0786 36.0813 16.3786 35.9092 16.8503 35.9092C17.3649 35.9092 17.8794 36.1242 18.1366 36.2534L18.5226 35.522ZM42.4474 35.0918C41.9327 35.0918 41.5897 35.3499 41.3753 35.694V35.1778H40.4749V39.3079H41.3753V36.9848C41.3753 36.2965 41.6755 35.9092 42.2327 35.9092C42.4044 35.9092 42.6188 35.9523 42.7903 35.9953L43.0476 35.1349C42.8761 35.0918 42.6189 35.0918 42.4474 35.0918ZM30.9565 37.2429C30.9565 38.4905 31.814 39.394 33.1433 39.394C33.7435 39.394 34.1722 39.265 34.6009 38.9209L34.1722 38.1895C33.8292 38.4476 33.4862 38.5765 33.1003 38.5765C32.3714 38.5765 31.8569 38.0603 31.8569 37.2429C31.8569 36.4686 32.3714 35.9522 33.1003 35.9092C33.4862 35.9092 33.8292 36.0382 34.1722 36.2965L34.6009 35.5651C34.1722 35.2208 33.7435 35.0918 33.1433 35.0918C31.814 35.0918 30.9565 35.9953 30.9565 37.2429ZM39.2745 37.2429V35.1778H38.3741V35.694C38.0739 35.307 37.6452 35.0918 37.0878 35.0918C35.9302 35.0918 35.0298 35.9953 35.0298 37.2429C35.0298 38.4905 35.9302 39.394 37.0878 39.394C37.688 39.394 38.1169 39.179 38.3741 38.7917V39.3079H39.2745V37.2429ZM35.9729 37.2429C35.9729 36.5115 36.4446 35.9092 37.2163 35.9092C37.9452 35.9092 38.4599 36.4686 38.4599 37.2429C38.4599 37.9743 37.9452 38.5765 37.2163 38.5765C36.4446 38.5334 35.9729 37.9743 35.9729 37.2429ZM25.2112 35.0918C24.0106 35.0918 23.153 35.9522 23.153 37.2429C23.153 38.5336 24.0105 39.394 25.254 39.394C25.8542 39.394 26.4546 39.2219 26.9263 38.8348L26.4974 38.1895C26.1544 38.4476 25.7257 38.6196 25.297 38.6196C24.7396 38.6196 24.1821 38.3615 24.0534 37.6299H27.0978V37.286C27.1407 35.9522 26.369 35.0918 25.2112 35.0918ZM25.211 35.8661C25.7683 35.8661 26.1544 36.2105 26.2399 36.8558H24.0962C24.1819 36.2965 24.5679 35.8661 25.211 35.8661ZM47.5493 37.2429V33.543H46.6489V35.694C46.3487 35.307 45.92 35.0918 45.3626 35.0918C44.205 35.0918 43.3046 35.9953 43.3046 37.2429C43.3046 38.4905 44.205 39.394 45.3626 39.394C45.963 39.394 46.3917 39.179 46.6489 38.7917V39.3079H47.5493V37.2429ZM44.2479 37.2429C44.2479 36.5115 44.7194 35.9092 45.4913 35.9092C46.2202 35.9092 46.7347 36.4686 46.7347 37.2429C46.7347 37.9743 46.2202 38.5765 45.4913 38.5765C44.7194 38.5334 44.2479 37.9743 44.2479 37.2429ZM14.1489 37.2429V35.1778H13.2485V35.694C12.9483 35.307 12.5196 35.0918 11.9622 35.0918C10.8046 35.0918 9.9042 35.9953 9.9042 37.2429C9.9042 38.4905 10.8046 39.394 11.9622 39.394C12.5626 39.394 12.9913 39.179 13.2485 38.7917V39.3079H14.1489V37.2429ZM10.8046 37.2429C10.8046 36.5115 11.2763 35.9092 12.0479 35.9092C12.7769 35.9092 13.2915 36.4686 13.2915 37.2429C13.2915 37.9743 12.7769 38.5765 12.0479 38.5765C11.2763 38.5334 10.8046 37.9743 10.8046 37.2429Z" fill="black"/>
<path d="M18.2222 3.8125H31.728V28.1632H18.2222V3.8125Z" fill="#FF5F00"/>
<path d="M19.0799 15.9881C19.0799 11.0406 21.3951 6.6522 24.9537 3.81265C22.3385 1.74761 19.0371 0.5 15.4355 0.5C6.90293 0.5 0 7.42652 0 15.9881C0 24.5497 6.90293 31.4762 15.4354 31.4762C19.0369 31.4762 22.3383 30.2286 24.9537 28.1633C21.3951 25.3669 19.0799 20.9356 19.0799 15.9881Z" fill="#EB001B"/>
<path d="M49.9503 15.9881C49.9503 24.5495 43.0474 31.4762 34.5149 31.4762C30.9134 31.4762 27.612 30.2286 24.9966 28.1633C28.5981 25.324 30.8706 20.9356 30.8706 15.9881C30.8706 11.0406 28.5552 6.6522 24.9966 3.81265C27.6118 1.74761 30.9134 0.5 34.5149 0.5C43.0474 0.5 49.9503 7.46963 49.9503 15.9881Z" fill="#F79E1B"/>
</svg>
