<svg width="24" height="24" viewBox="0 0 24 24" fill="none" xmlns="http://www.w3.org/2000/svg">
<path fill-rule="evenodd" clip-rule="evenodd" d="M9.69436 3.25H13.8064C15.6444 3.25 17.1004 3.25 18.2394 3.403C19.4114 3.561 20.3604 3.893 21.1094 4.641C21.8574 5.39 22.1894 6.339 22.3474 7.511C22.4374 8.184 22.4744 8.967 22.4894 9.874C22.5018 9.95007 22.5031 10.0275 22.4934 10.104C22.4994 10.6693 22.5017 11.2827 22.5004 11.944V12.056C22.5004 13.894 22.5004 15.35 22.3474 16.489C22.1894 17.661 21.8574 18.61 21.1094 19.359C20.3604 20.107 19.4114 20.439 18.2394 20.597C17.0994 20.75 15.6444 20.75 13.8064 20.75H9.69436C7.85636 20.75 6.40036 20.75 5.26136 20.597C4.08936 20.439 3.14036 20.107 2.39136 19.359C1.64336 18.61 1.31136 17.661 1.15336 16.489C1.00036 15.349 1.00036 13.894 1.00036 12.056V11.944C0.99903 11.2827 1.00136 10.6693 1.00736 10.104C0.997279 10.0276 0.99829 9.95012 1.01036 9.874C1.02636 8.967 1.06336 8.184 1.15336 7.511C1.31136 6.339 1.64336 5.39 2.39136 4.641C3.14036 3.893 4.08936 3.561 5.26136 3.403C6.40136 3.25 7.85636 3.25 9.69436 3.25ZM2.50236 10.75C2.50103 11.138 2.50036 11.5547 2.50036 12C2.50036 13.907 2.50236 15.262 2.64036 16.29C2.77536 17.295 3.02936 17.875 3.45236 18.298C3.87536 18.721 4.45536 18.975 5.46136 19.11C6.48936 19.248 7.84336 19.25 9.75036 19.25H13.7504C15.6574 19.25 17.0124 19.248 18.0404 19.11C19.0454 18.975 19.6254 18.721 20.0484 18.298C20.4714 17.875 20.7254 17.295 20.8604 16.289C20.9984 15.261 21.0004 13.907 21.0004 12C21.0004 11.5547 20.9997 11.138 20.9984 10.75H2.50236ZM20.9744 9.25H2.52636C2.54636 8.663 2.58036 8.156 2.64036 7.71C2.77536 6.705 3.02936 6.125 3.45236 5.702C3.87536 5.279 4.45536 5.025 5.46136 4.89C6.48936 4.752 7.84336 4.75 9.75036 4.75H13.7504C15.6574 4.75 17.0124 4.752 18.0404 4.89C19.0454 5.025 19.6254 5.279 20.0484 5.702C20.4714 6.125 20.7254 6.705 20.8604 7.711C20.9204 8.156 20.9544 8.663 20.9744 9.25ZM15.7054 12.25H15.7954C16.2284 12.25 16.6254 12.25 16.9474 12.293C17.3034 12.341 17.6784 12.453 17.9874 12.763C18.2964 13.073 18.4094 13.447 18.4574 13.803C18.5004 14.126 18.5004 14.523 18.5004 14.955V15.045C18.5004 15.478 18.5004 15.875 18.4574 16.197C18.4094 16.553 18.2974 16.928 17.9874 17.237C17.6774 17.546 17.3034 17.659 16.9474 17.707C16.6244 17.75 16.2274 17.75 15.7954 17.75H15.7054C15.2724 17.75 14.8754 17.75 14.5534 17.707C14.1974 17.659 13.8224 17.547 13.5134 17.237C13.2044 16.927 13.0914 16.553 13.0434 16.197C13.0004 15.874 13.0004 15.477 13.0004 15.045V14.955C13.0004 14.522 13.0004 14.125 13.0434 13.803C13.0914 13.447 13.2034 13.072 13.5134 12.763C13.8234 12.454 14.1974 12.341 14.5534 12.293C14.8764 12.25 15.2734 12.25 15.7054 12.25ZM14.5754 13.822L14.5734 13.823L14.5724 13.826L14.5674 13.836C14.5483 13.8899 14.5358 13.946 14.5304 14.003C14.5024 14.213 14.5004 14.507 14.5004 15C14.5004 15.493 14.5024 15.787 14.5304 15.997C14.5366 16.0576 14.5507 16.1171 14.5724 16.174L14.5734 16.177L14.5764 16.178L14.5864 16.183C14.6084 16.192 14.6564 16.207 14.7534 16.22C14.9634 16.248 15.2574 16.25 15.7504 16.25C16.2434 16.25 16.5374 16.248 16.7474 16.22C16.8079 16.2138 16.8674 16.1996 16.9244 16.178L16.9274 16.177L16.9284 16.174L16.9334 16.164C16.9525 16.1101 16.9649 16.054 16.9704 15.997C16.9984 15.787 17.0004 15.493 17.0004 15C17.0004 14.507 16.9984 14.213 16.9704 14.003C16.9641 13.9424 16.95 13.8829 16.9284 13.826L16.9274 13.823L16.9244 13.822L16.9144 13.817C16.8604 13.7979 16.8043 13.7855 16.7474 13.78C16.5374 13.752 16.2434 13.75 15.7504 13.75C15.2574 13.75 14.9634 13.752 14.7534 13.78C14.6928 13.7862 14.6333 13.8004 14.5764 13.822M5.00036 13.5C5.00036 13.3011 5.07938 13.1103 5.22003 12.9697C5.36069 12.829 5.55145 12.75 5.75036 12.75H7.75036C7.94928 12.75 8.14004 12.829 8.28069 12.9697C8.42135 13.1103 8.50036 13.3011 8.50036 13.5C8.50036 13.6989 8.42135 13.8897 8.28069 14.0303C8.14004 14.171 7.94928 14.25 7.75036 14.25H5.75036C5.55145 14.25 5.36069 14.171 5.22003 14.0303C5.07938 13.8897 5.00036 13.6989 5.00036 13.5ZM5.00036 16.5C5.00036 16.3011 5.07938 16.1103 5.22003 15.9697C5.36069 15.829 5.55145 15.75 5.75036 15.75H9.75036C9.94928 15.75 10.14 15.829 10.2807 15.9697C10.4213 16.1103 10.5004 16.3011 10.5004 16.5C10.5004 16.6989 10.4213 16.8897 10.2807 17.0303C10.14 17.171 9.94928 17.25 9.75036 17.25H5.75036C5.55145 17.25 5.36069 17.171 5.22003 17.0303C5.07938 16.8897 5.00036 16.6989 5.00036 16.5Z" fill="black"/>
</svg>
